<?xml version="1.0" encoding="utf-8"?>
<!-- Generator: Adobe Illustrator 23.1.0, SVG Export Plug-In . SVG Version: 6.00 Build 0)  -->
<svg version="1.1" id="Capa_1" xmlns="http://www.w3.org/2000/svg" xmlns:xlink="http://www.w3.org/1999/xlink" x="0px" y="0px"
	 viewBox="0 0 20 20" style="enable-background:new 0 0 20 20;" xml:space="preserve">
<style type="text/css">
	.st0{fill:#1C2039;}
</style>
<path class="st0" d="M6.3,0c0.7,0,1.3,0.6,1.3,1.3v1.3h5V1.3c0-0.7,0.6-1.3,1.3-1.3S15,0.6,15,1.3v1.3h1.9c1,0,1.9,0.8,1.9,1.9v1.9
	H1.3V4.4c0-1,0.8-1.9,1.9-1.9H5V1.3C5,0.6,5.6,0,6.3,0z M1.3,7.5h17.5v10.6c0,1-0.8,1.9-1.9,1.9H3.1c-1,0-1.9-0.8-1.9-1.9V7.5z
	 M3.8,10.6v1.3c0,0.3,0.3,0.6,0.6,0.6h1.3c0.3,0,0.6-0.3,0.6-0.6v-1.3C6.3,10.3,6,10,5.6,10H4.4C4,10,3.8,10.3,3.8,10.6z M8.8,10.6
	v1.3c0,0.3,0.3,0.6,0.6,0.6h1.3c0.3,0,0.6-0.3,0.6-0.6v-1.3c0-0.3-0.3-0.6-0.6-0.6H9.4C9,10,8.8,10.3,8.8,10.6z M14.4,10
	c-0.3,0-0.6,0.3-0.6,0.6v1.3c0,0.3,0.3,0.6,0.6,0.6h1.3c0.3,0,0.6-0.3,0.6-0.6v-1.3c0-0.3-0.3-0.6-0.6-0.6H14.4z M3.8,15.6v1.3
	c0,0.3,0.3,0.6,0.6,0.6h1.3c0.3,0,0.6-0.3,0.6-0.6v-1.3C6.3,15.3,6,15,5.6,15H4.4C4,15,3.8,15.3,3.8,15.6z M9.4,15
	c-0.3,0-0.6,0.3-0.6,0.6v1.3c0,0.3,0.3,0.6,0.6,0.6h1.3c0.3,0,0.6-0.3,0.6-0.6v-1.3c0-0.3-0.3-0.6-0.6-0.6H9.4z M13.8,15.6v1.3
	c0,0.3,0.3,0.6,0.6,0.6h1.3c0.3,0,0.6-0.3,0.6-0.6v-1.3c0-0.3-0.3-0.6-0.6-0.6h-1.3C14,15,13.8,15.3,13.8,15.6z"/>
</svg>
