<svg width="24" height="24" viewBox="0 0 24 24" fill="none" xmlns="http://www.w3.org/2000/svg">
<path fill-rule="evenodd" clip-rule="evenodd" d="M4.40625 1C4.04381 1 3.75 1.29381 3.75 1.65625V6.49977V6.5V11.9998V17.4998H9.25H14.75V11.9998H19.5938C19.9562 11.9998 20.25 11.706 20.25 11.3435V7.15602C20.25 6.79358 19.9562 6.49977 19.5938 6.49977H15.4062C15.0438 6.49977 14.75 6.79358 14.75 7.15602V11.9998H9.25V6.5V6.49977V1.65625C9.25 1.29381 8.95619 1 8.59375 1H4.40625ZM14.75 17.5H19.5938C19.9562 17.5 20.25 17.7938 20.25 18.1562V22.3438C20.25 22.7062 19.9562 23 19.5938 23H15.4062C15.0438 23 14.75 22.7062 14.75 22.3438V17.5ZM9.25 17.5H3.75V22.3438C3.75 22.7062 4.04381 23 4.40625 23H8.59375C8.95619 23 9.25 22.7062 9.25 22.3438V17.5Z" fill="white"/>
</svg>
