<svg width="23" height="22" viewBox="0 0 23 22" fill="none" xmlns="http://www.w3.org/2000/svg">
<path d="M11.5 21.8334C10.0195 21.8334 8.62019 21.549 7.30213 20.9803C5.98408 20.4115 4.83304 19.6351 3.84901 18.6511C2.86498 17.6671 2.08859 16.516 1.51984 15.198C0.951092 13.8799 0.666718 12.4806 0.666718 11C0.666718 9.50144 0.951092 8.09762 1.51984 6.78859C2.08859 5.47956 2.86498 4.33304 3.84901 3.34901C4.83304 2.36498 5.98408 1.58859 7.30213 1.01984C8.62019 0.451092 10.0195 0.166718 11.5 0.166718C12.9987 0.166718 14.4025 0.451092 15.7115 1.01984C17.0205 1.58859 18.1671 2.36498 19.1511 3.34901C20.1351 4.33304 20.9115 5.47956 21.4803 6.78859C22.049 8.09762 22.3334 9.50144 22.3334 11C22.3334 12.4806 22.049 13.8799 21.4803 15.198C20.9115 16.516 20.1351 17.6671 19.1511 18.6511C18.1671 19.6351 17.0205 20.4115 15.7115 20.9803C14.4025 21.549 12.9987 21.8334 11.5 21.8334ZM17.0521 8.4813L18.9209 7.8313L19.4084 6.09797C18.7945 5.14102 18.0362 4.32401 17.1334 3.64693C16.2306 2.96984 15.2105 2.45075 14.073 2.08963L12.3125 3.25422V5.15005L17.0521 8.4813ZM5.97505 8.4813L10.6876 5.15005V3.25422L8.95422 2.08963C7.81672 2.45075 6.79658 2.96984 5.8938 3.64693C4.99102 4.32401 4.23269 5.14102 3.6188 6.09797L4.21463 7.8313L5.97505 8.4813ZM4.51255 17.148L6.13755 16.9584L7.1938 15.198L5.51463 10.0251L3.59172 9.37505L2.29172 10.4313C2.29172 11.7313 2.43616 12.9185 2.72505 13.9928C3.01394 15.0671 3.60977 16.1188 4.51255 17.148ZM11.5 20.2084C11.9875 20.2084 12.4796 20.1632 12.9761 20.073C13.4726 19.9827 13.9917 19.8653 14.5334 19.7209L15.4271 17.7709L14.5605 16.2813H8.46672L7.60005 17.7709L8.4938 19.7209C8.96325 19.8653 9.45977 19.9827 9.98338 20.073C10.507 20.1632 11.0126 20.2084 11.5 20.2084ZM8.62922 14.6563H14.2626L15.9146 9.70005L11.5 6.5313L7.00422 9.70005L8.62922 14.6563ZM18.5146 17.148C19.3994 16.1188 19.9862 15.0671 20.275 13.9928C20.5639 12.9185 20.7084 11.7313 20.7084 10.4313L19.4084 9.53755L17.5125 10.0251L15.8334 15.198L16.8626 16.9584L18.5146 17.148Z" fill="white"/>
</svg>
