<svg width="38" height="38" viewBox="0 0 38 38" fill="none" xmlns="http://www.w3.org/2000/svg">
<path d="M19 37.3333C16.4944 37.3333 14.1264 36.852 11.8958 35.8895C9.66527 34.927 7.71735 33.6132 6.05207 31.9479C4.3868 30.2826 3.07291 28.3347 2.11041 26.1041C1.14791 23.8736 0.666656 21.5055 0.666656 19C0.666656 16.4638 1.14791 14.0882 2.11041 11.8729C3.07291 9.6576 4.3868 7.71732 6.05207 6.05204C7.71735 4.38677 9.66527 3.07288 11.8958 2.11038C14.1264 1.14788 16.4944 0.666626 19 0.666626C21.5361 0.666626 23.9118 1.14788 26.1271 2.11038C28.3424 3.07288 30.2826 4.38677 31.9479 6.05204C33.6132 7.71732 34.9271 9.6576 35.8896 11.8729C36.8521 14.0882 37.3333 16.4638 37.3333 19C37.3333 21.5055 36.8521 23.8736 35.8896 26.1041C34.9271 28.3347 33.6132 30.2826 31.9479 31.9479C30.2826 33.6132 28.3424 34.927 26.1271 35.8895C23.9118 36.852 21.5361 37.3333 19 37.3333ZM28.3958 14.7375L31.5583 13.6375L32.3833 10.7041C31.3444 9.08468 30.0611 7.70204 28.5333 6.55621C27.0055 5.41038 25.2792 4.5319 23.3542 3.92079L20.375 5.89163V9.09996L28.3958 14.7375ZM9.64999 14.7375L17.625 9.09996V5.89163L14.6917 3.92079C12.7667 4.5319 11.0403 5.41038 9.51249 6.55621C7.98471 7.70204 6.70138 9.08468 5.66249 10.7041L6.67082 13.6375L9.64999 14.7375ZM7.17499 29.4041L9.92499 29.0833L11.7125 26.1041L8.87082 17.35L5.61666 16.25L3.41666 18.0375C3.41666 20.2375 3.6611 22.2465 4.14999 24.0645C4.63888 25.8826 5.64721 27.6625 7.17499 29.4041ZM19 34.5833C19.825 34.5833 20.6576 34.5069 21.4979 34.3541C22.3382 34.2013 23.2167 34.0027 24.1333 33.7583L25.6458 30.4583L24.1792 27.9375H13.8667L12.4 30.4583L13.9125 33.7583C14.7069 34.0027 15.5472 34.2013 16.4333 34.3541C17.3194 34.5069 18.175 34.5833 19 34.5833ZM14.1417 25.1875H23.675L26.4708 16.8L19 11.4375L11.3917 16.8L14.1417 25.1875ZM30.8708 29.4041C32.368 27.6625 33.3611 25.8826 33.85 24.0645C34.3389 22.2465 34.5833 20.2375 34.5833 18.0375L32.3833 16.525L29.175 17.35L26.3333 26.1041L28.075 29.0833L30.8708 29.4041Z" fill="#06923B"/>
</svg>
